<mxfile host="app.diagrams.net" agent="Mozilla/5.0 (Windows NT 10.0; Win64; x64) AppleWebKit/537.36 (KHTML, like Gecko) Chrome/135.0.0.0 Safari/537.36" version="26.2.12">
  <diagram name="Page-1" id="tI57CuicpxDjM985Q3Bo">
    <mxGraphModel dx="2065" dy="736" grid="1" gridSize="10" guides="1" tooltips="1" connect="1" arrows="1" fold="1" page="1" pageScale="1" pageWidth="850" pageHeight="1100" math="0" shadow="0">
      <root>
        <mxCell id="0" />
        <mxCell id="1" parent="0" />
        <mxCell id="fnVpeiZnEQash3BwGIsv-52" value="" style="rounded=0;whiteSpace=wrap;html=1;" vertex="1" parent="1">
          <mxGeometry x="40" y="160" width="350" height="280" as="geometry" />
        </mxCell>
        <mxCell id="fnVpeiZnEQash3BwGIsv-6" value="" style="rounded=0;whiteSpace=wrap;html=1;" vertex="1" parent="1">
          <mxGeometry x="560" y="260" width="200" height="180" as="geometry" />
        </mxCell>
        <mxCell id="fnVpeiZnEQash3BwGIsv-4" value="WEB服务端" style="rounded=0;whiteSpace=wrap;html=1;" vertex="1" parent="1">
          <mxGeometry x="160" y="170" width="110" height="30" as="geometry" />
        </mxCell>
        <mxCell id="fnVpeiZnEQash3BwGIsv-22" style="edgeStyle=orthogonalEdgeStyle;rounded=0;orthogonalLoop=1;jettySize=auto;html=1;exitX=0;exitY=0.25;exitDx=0;exitDy=0;entryX=1;entryY=0.25;entryDx=0;entryDy=0;" edge="1" parent="1" source="fnVpeiZnEQash3BwGIsv-5" target="fnVpeiZnEQash3BwGIsv-12">
          <mxGeometry relative="1" as="geometry" />
        </mxCell>
        <mxCell id="fnVpeiZnEQash3BwGIsv-44" style="edgeStyle=orthogonalEdgeStyle;rounded=0;orthogonalLoop=1;jettySize=auto;html=1;exitX=1;exitY=0.75;exitDx=0;exitDy=0;entryX=0;entryY=0.75;entryDx=0;entryDy=0;" edge="1" parent="1" source="fnVpeiZnEQash3BwGIsv-5" target="fnVpeiZnEQash3BwGIsv-9">
          <mxGeometry relative="1" as="geometry" />
        </mxCell>
        <mxCell id="fnVpeiZnEQash3BwGIsv-50" value="返回所检测到的舆情情况" style="edgeLabel;html=1;align=center;verticalAlign=middle;resizable=0;points=[];" vertex="1" connectable="0" parent="fnVpeiZnEQash3BwGIsv-44">
          <mxGeometry x="-0.2773" y="-4" relative="1" as="geometry">
            <mxPoint x="20" y="11" as="offset" />
          </mxGeometry>
        </mxCell>
        <mxCell id="fnVpeiZnEQash3BwGIsv-5" value="服务端标准化接口" style="rounded=0;whiteSpace=wrap;html=1;" vertex="1" parent="1">
          <mxGeometry x="290" y="320" width="100" height="60" as="geometry" />
        </mxCell>
        <mxCell id="fnVpeiZnEQash3BwGIsv-8" value="WEB客户端" style="rounded=0;whiteSpace=wrap;html=1;" vertex="1" parent="1">
          <mxGeometry x="605" y="270" width="110" height="30" as="geometry" />
        </mxCell>
        <mxCell id="fnVpeiZnEQash3BwGIsv-48" style="edgeStyle=orthogonalEdgeStyle;rounded=0;orthogonalLoop=1;jettySize=auto;html=1;exitX=0;exitY=0.25;exitDx=0;exitDy=0;entryX=1;entryY=0.25;entryDx=0;entryDy=0;" edge="1" parent="1" source="fnVpeiZnEQash3BwGIsv-9" target="fnVpeiZnEQash3BwGIsv-5">
          <mxGeometry relative="1" as="geometry" />
        </mxCell>
        <mxCell id="fnVpeiZnEQash3BwGIsv-49" value="每隔固定时间发送刷新请求" style="edgeLabel;html=1;align=center;verticalAlign=middle;resizable=0;points=[];" vertex="1" connectable="0" parent="fnVpeiZnEQash3BwGIsv-48">
          <mxGeometry x="0.4373" y="-3" relative="1" as="geometry">
            <mxPoint x="40" y="-12" as="offset" />
          </mxGeometry>
        </mxCell>
        <mxCell id="fnVpeiZnEQash3BwGIsv-9" value="前端管理页面&lt;div&gt;（dashboard）&lt;/div&gt;" style="rounded=0;whiteSpace=wrap;html=1;" vertex="1" parent="1">
          <mxGeometry x="600" y="320" width="120" height="60" as="geometry" />
        </mxCell>
        <mxCell id="fnVpeiZnEQash3BwGIsv-33" style="edgeStyle=orthogonalEdgeStyle;rounded=0;orthogonalLoop=1;jettySize=auto;html=1;exitX=1;exitY=0.25;exitDx=0;exitDy=0;entryX=0;entryY=0.25;entryDx=0;entryDy=0;" edge="1" parent="1" source="fnVpeiZnEQash3BwGIsv-11" target="fnVpeiZnEQash3BwGIsv-12">
          <mxGeometry relative="1" as="geometry" />
        </mxCell>
        <mxCell id="fnVpeiZnEQash3BwGIsv-36" value="返回评论、帖子内容等" style="edgeLabel;html=1;align=center;verticalAlign=middle;resizable=0;points=[];" vertex="1" connectable="0" parent="fnVpeiZnEQash3BwGIsv-33">
          <mxGeometry x="-0.25" y="1" relative="1" as="geometry">
            <mxPoint x="-8" y="-14" as="offset" />
          </mxGeometry>
        </mxCell>
        <mxCell id="fnVpeiZnEQash3BwGIsv-11" value="第三方平台（百度贴吧、知乎、微博等社交平台）" style="rounded=0;whiteSpace=wrap;html=1;" vertex="1" parent="1">
          <mxGeometry x="-200" y="320" width="120" height="60" as="geometry" />
        </mxCell>
        <mxCell id="fnVpeiZnEQash3BwGIsv-34" style="edgeStyle=orthogonalEdgeStyle;rounded=0;orthogonalLoop=1;jettySize=auto;html=1;exitX=0;exitY=0.75;exitDx=0;exitDy=0;entryX=1;entryY=0.75;entryDx=0;entryDy=0;" edge="1" parent="1" source="fnVpeiZnEQash3BwGIsv-12" target="fnVpeiZnEQash3BwGIsv-11">
          <mxGeometry relative="1" as="geometry" />
        </mxCell>
        <mxCell id="fnVpeiZnEQash3BwGIsv-35" value="发出最新内容请求" style="edgeLabel;html=1;align=center;verticalAlign=middle;resizable=0;points=[];" vertex="1" connectable="0" parent="fnVpeiZnEQash3BwGIsv-34">
          <mxGeometry x="0.4625" y="-2" relative="1" as="geometry">
            <mxPoint x="17" y="17" as="offset" />
          </mxGeometry>
        </mxCell>
        <mxCell id="fnVpeiZnEQash3BwGIsv-38" style="edgeStyle=orthogonalEdgeStyle;rounded=0;orthogonalLoop=1;jettySize=auto;html=1;exitX=0.25;exitY=0;exitDx=0;exitDy=0;entryX=0.25;entryY=1;entryDx=0;entryDy=0;" edge="1" parent="1" source="fnVpeiZnEQash3BwGIsv-12" target="fnVpeiZnEQash3BwGIsv-37">
          <mxGeometry relative="1" as="geometry" />
        </mxCell>
        <mxCell id="fnVpeiZnEQash3BwGIsv-41" value="传入文本" style="edgeLabel;html=1;align=center;verticalAlign=middle;resizable=0;points=[];" vertex="1" connectable="0" parent="fnVpeiZnEQash3BwGIsv-38">
          <mxGeometry x="0.2333" y="2" relative="1" as="geometry">
            <mxPoint x="-28" y="5" as="offset" />
          </mxGeometry>
        </mxCell>
        <mxCell id="fnVpeiZnEQash3BwGIsv-47" style="edgeStyle=orthogonalEdgeStyle;rounded=0;orthogonalLoop=1;jettySize=auto;html=1;exitX=1;exitY=0.75;exitDx=0;exitDy=0;entryX=0;entryY=0.75;entryDx=0;entryDy=0;" edge="1" parent="1" source="fnVpeiZnEQash3BwGIsv-12" target="fnVpeiZnEQash3BwGIsv-5">
          <mxGeometry relative="1" as="geometry" />
        </mxCell>
        <mxCell id="fnVpeiZnEQash3BwGIsv-12" value="主程序" style="rounded=0;whiteSpace=wrap;html=1;" vertex="1" parent="1">
          <mxGeometry x="100" y="320" width="120" height="60" as="geometry" />
        </mxCell>
        <mxCell id="fnVpeiZnEQash3BwGIsv-40" style="edgeStyle=orthogonalEdgeStyle;rounded=0;orthogonalLoop=1;jettySize=auto;html=1;exitX=0.75;exitY=1;exitDx=0;exitDy=0;entryX=0.75;entryY=0;entryDx=0;entryDy=0;" edge="1" parent="1" source="fnVpeiZnEQash3BwGIsv-37" target="fnVpeiZnEQash3BwGIsv-12">
          <mxGeometry relative="1" as="geometry" />
        </mxCell>
        <mxCell id="fnVpeiZnEQash3BwGIsv-45" value="返回舆情等级" style="edgeLabel;html=1;align=center;verticalAlign=middle;resizable=0;points=[];" vertex="1" connectable="0" parent="fnVpeiZnEQash3BwGIsv-40">
          <mxGeometry x="0.0167" y="-2" relative="1" as="geometry">
            <mxPoint x="42" as="offset" />
          </mxGeometry>
        </mxCell>
        <mxCell id="fnVpeiZnEQash3BwGIsv-37" value="文本分类模型" style="rounded=0;whiteSpace=wrap;html=1;" vertex="1" parent="1">
          <mxGeometry x="100" y="220" width="120" height="60" as="geometry" />
        </mxCell>
      </root>
    </mxGraphModel>
  </diagram>
</mxfile>
